<svg xmlns="http://www.w3.org/2000/svg" width="48" height="48" viewBox="0 0 1040 1024" fill="#07C160"><path d="M693.260274 345.0742c11.780301 0 23.36515 0.89437 35.017538 2.172479-31.368428-146.074913-187.494255-254.578116-365.772614-254.578116-199.272509 0-362.504174 135.77022-362.504174 308.285319 0 99.541087 54.283324 181.286879 145.054677 244.786099l-36.233226 109.015879 126.744659-63.503313c45.321208 8.897647 81.681324 18.11866 126.939087 18.11866 11.394515 0 22.661116-0.512676 33.800827-1.343601-7.04137-24.26259-11.202133-49.613978-11.202133-76.05007C385.16529 473.610668 521.129938 345.0742 693.260274 345.0742L693.260274 345.0742zM498.4064 246.812245c27.398 0 45.384653 17.987676 45.384653 45.257763 0 27.139104-17.98563 45.321208-45.384653 45.321208-27.081799 0-54.346769-18.182105-54.346769-45.321208C444.059632 264.735453 471.26218 246.812245 498.4064 246.812245L498.4064 246.812245zM244.721631 337.391217c-27.206642 0-54.605665-18.182105-54.605665-45.321208 0-27.270087 27.399023-45.257763 54.605665-45.257763 27.202549 0 45.258787 17.923208 45.258787 45.257763C289.980417 319.209112 271.925203 337.391217 244.721631 337.391217L244.721631 337.391217zM244.721631 337.391217"/><path d="M1024.205685 627.626437c0-144.926764-145.053654-263.031649-307.96707-263.031649-172.509982 0-308.285319 118.169353-308.285319 263.031649 0 145.308457 135.837758 263.026532 308.285319 263.026532 36.106336 0 72.529897-9.025561 108.762099-18.113543l99.410104 54.537104-27.272133-90.638323C969.922361 781.769097 1024.205685 709.37223 1024.205685 627.626437L1024.205685 627.626437zM616.252389 582.240761c-17.986653 0-36.232203-17.923208-36.232203-36.232203 0-18.051121 18.246573-36.228109 36.232203-36.228109 27.525913 0 45.385677 18.176988 45.385677 36.228109C661.637042 564.317553 643.777279 582.240761 616.252389 582.240761L616.252389 582.240761zM815.653835 582.240761c-17.860786 0-36.038798-17.923208-36.038798-36.232203 0-18.051121 18.114566-36.228109 36.038798-36.228109 27.270087 0 45.384653 18.176988 45.384653 36.228109C861.037465 564.317553 842.923922 582.240761 815.653835 582.240761L815.653835 582.240761zM815.653835 582.240761"/></svg>