<svg xmlns="http://www.w3.org/2000/svg" width="48" height="48" viewBox="0 0 48 48" fill="none">
  <rect width="48" height="48" rx="12" fill="#07C160"/>
  <path d="M18.5 14C13.81 14 10 17.14 10 21c0 2.17 1.17 4.11 3 5.39l-.75 2.61 2.88-1.44c.86.24 1.77.38 2.72.4a7.47 7.47 0 0 1-.1-1.21C17.75 23.01 21.3 20 25.5 20c.52 0 1.03.05 1.52.13C26.18 16.69 22.72 14 18.5 14zm-3.25 3.5a1.25 1.25 0 1 1 0 2.5 1.25 1.25 0 0 1 0-2.5zm6.5 0a1.25 1.25 0 1 1 0 2.5 1.25 1.25 0 0 1 0-2.5z" fill="white"/>
  <path d="M38 26.75c0-3.17-3.13-5.75-7-5.75s-7 2.58-7 5.75 3.13 5.75 7 5.75c.75 0 1.47-.1 2.14-.28L35.5 34l-.56-1.94C36.68 30.72 38 28.87 38 26.75zm-9.5-1a1 1 0 1 1 0 2 1 1 0 0 1 0-2zm5 0a1 1 0 1 1 0 2 1 1 0 0 1 0-2z" fill="white"/>
</svg>